<svg xmlns="http://www.w3.org/2000/svg" width="29.25" height="29.219" viewBox="0 0 29.25 29.219">
  <metadata><?xpacket begin="﻿" id="W5M0MpCehiHzreSzNTczkc9d"?>
<x:xmpmeta xmlns:x="adobe:ns:meta/" x:xmptk="Adobe XMP Core 5.6-c138 79.159824, 2016/09/14-01:09:01        ">
   <rdf:RDF xmlns:rdf="http://www.w3.org/1999/02/22-rdf-syntax-ns#">
      <rdf:Description rdf:about=""/>
   </rdf:RDF>
</x:xmpmeta>
                                                                                                    
                                                                                                    
                                                                                                    
                                                                                                    
                                                                                                    
                                                                                                    
                                                                                                    
                                                                                                    
                                                                                                    
                                                                                                    
                                                                                                    
                                                                                                    
                                                                                                    
                                                                                                    
                                                                                                    
                                                                                                    
                                                                                                    
                                                                                                    
                                                                                                    
                                                                                                    
                           
<?xpacket end="w"?></metadata>
<defs>
    <style>
      .cls-1 {
        fill: #73b6cc;
        fill-rule: evenodd;
      }
    </style>
  </defs>
  <path id="Shape_4_copy_2" data-name="Shape 4 copy 2" class="cls-1" d="M1290.85,10.364a14.615,14.615,0,1,1-14.62,14.615A14.612,14.612,0,0,1,1290.85,10.364Zm-10.93,14.581,4.28,1.6,1.66,5.335a0.5,0.5,0,0,0,.8.241l2.39-1.947a0.714,0.714,0,0,1,.87-0.024l4.31,3.128a0.5,0.5,0,0,0,.79-0.305l3.16-15.182a0.508,0.508,0,0,0-.68-0.574L1279.91,24A0.506,0.506,0,0,0,1279.92,24.945Zm5.67,0.748,8.38-5.159a0.147,0.147,0,0,1,.18.231l-6.92,6.425a1.421,1.421,0,0,0-.44.858l-0.24,1.745a0.215,0.215,0,0,1-.42.031l-0.9-3.182A0.832,0.832,0,0,1,1285.59,25.693Z" transform="translate(-1276.22 -10.375)"/>
</svg>
