<svg xmlns="http://www.w3.org/2000/svg" width="39.969" height="39.56" viewBox="0 0 39.969 39.56">
  <metadata><?xpacket begin="﻿" id="W5M0MpCehiHzreSzNTczkc9d"?>
<x:xmpmeta xmlns:x="adobe:ns:meta/" x:xmptk="Adobe XMP Core 5.6-c138 79.159824, 2016/09/14-01:09:01        ">
   <rdf:RDF xmlns:rdf="http://www.w3.org/1999/02/22-rdf-syntax-ns#">
      <rdf:Description rdf:about=""/>
   </rdf:RDF>
</x:xmpmeta>
                                                                                                    
                                                                                                    
                                                                                                    
                                                                                                    
                                                                                                    
                                                                                                    
                                                                                                    
                                                                                                    
                                                                                                    
                                                                                                    
                                                                                                    
                                                                                                    
                                                                                                    
                                                                                                    
                                                                                                    
                                                                                                    
                                                                                                    
                                                                                                    
                                                                                                    
                                                                                                    
                           
<?xpacket end="w"?></metadata>
<defs>
    <style>
      .cls-1 {
        fill: #fff;
        fill-rule: evenodd;
      }
    </style>
  </defs>
  <path class="cls-1" d="M814.675,4402.87a1.8,1.8,0,0,0-1.339-.59H812.4l0.111-1.7,0.137-2.12a5.849,5.849,0,0,0-5.838-6.23h-4.652a5.85,5.85,0,0,0-5.838,6.23l0.207,3.17,0.042,0.65h-1.013a1.821,1.821,0,0,0-1.811,1.97l0.3,3.54a1.8,1.8,0,0,0,1.193,1.55v3.3a0.8,0.8,0,0,0,1.593,0v-3.19h0.214a7.495,7.495,0,0,0,13.68,3.24,3.971,3.971,0,0,0,1.524-.46c2.3-1.23,2.577-4.31,2.588-4.45h0l0.3-3.53A1.817,1.817,0,0,0,814.675,4402.87Zm-18.812,4.99a0.225,0.225,0,0,1-.223-0.21l-0.3-3.53a0.236,0.236,0,0,1,.223-0.25h1.116l0.26,3.99h-1.073Zm2.051-9.5a4.246,4.246,0,0,1,4.248-4.53h4.652c0.1,0,.205,0,0.307.01l-1.234,3.29c-0.2.33-2.011,3.05-7.819,3.6Zm12.458,10.57a5.9,5.9,0,0,1-.566,2.17,7.275,7.275,0,0,1-2.335-.75,2.066,2.066,0,0,0,.044-0.42,2,2,0,1,0-.993,1.72,10.3,10.3,0,0,0,2.309.89,6.146,6.146,0,0,1-1.5,1.18,5.9,5.9,0,0,1-8.726-4.79l-0.431-6.61c4.488-.41,6.936-2.05,8.142-3.23a4.661,4.661,0,0,0,1.378,1.02,15.9,15.9,0,0,0,3.188,1.04Zm-4.45,1a0.4,0.4,0,1,1-.4-0.4A0.4,0.4,0,0,1,805.922,4409.93Zm5.139-11.57-0.076,1.17a13,13,0,0,1-2.561-.84,1.785,1.785,0,0,1-1.07-.93,0.016,0.016,0,0,1,0-.01h0l1.313-3.5a4.158,4.158,0,0,1,1.251.92A4.219,4.219,0,0,1,811.061,4398.36Zm0.59,12.38a7.386,7.386,0,0,0,.272-1.29h0.818A3.072,3.072,0,0,1,811.651,4410.74Zm1.605-3.09a0.225,0.225,0,0,1-.223.21h-0.994l0.26-3.99h1.037a0.236,0.236,0,0,1,.223.25Zm11.219,23.18-0.771-4.25a11.833,11.833,0,0,0-9.443-9.52,12.417,12.417,0,0,0-2.194-.2h-2.32a0.791,0.791,0,0,0-.564.23l-4.695,4.7-4.7-4.7a0.79,0.79,0,0,0-.563-0.23h-2.321a12.426,12.426,0,0,0-2.194.2h0a11.836,11.836,0,0,0-9.443,9.52l-0.771,4.25a0.79,0.79,0,0,0,.173.65,0.8,0.8,0,0,0,.611.29h38.407a0.8,0.8,0,0,0,.611-0.29A0.79,0.79,0,0,0,824.475,4430.83Zm-19.424-7.35,5.026-5.03h1.99c0.1,0,.206,0,0.309.01l-7.888,7.89-1.153-1.16Zm-8.143-5.03H798.9l4.462,4.46-1.152,1.16-5.61-5.61C796.7,4418.45,796.805,4418.45,796.908,4418.45Zm-10.669,11.72,0.6-3.31a10.3,10.3,0,0,1,7.764-8.15l9.321,9.33c0.02,0.02.04,0.03,0.061,0.05a0.791,0.791,0,0,0,1,0c0.021-.02.042-0.03,0.061-0.05l9.321-9.33a10.3,10.3,0,0,1,7.764,8.15l0.6,3.31h-36.5Zm9.8-15.94a0.8,0.8,0,0,0-.8.8v0.32a0.8,0.8,0,0,0,1.593,0v-0.32A0.8,0.8,0,0,0,796.041,4414.23Z" transform="translate(-784.5 -4392.22)"/>
</svg>
