<svg xmlns="http://www.w3.org/2000/svg" width="40.03" height="40" viewBox="0 0 40.03 40">
  <metadata><?xpacket begin="﻿" id="W5M0MpCehiHzreSzNTczkc9d"?>
<x:xmpmeta xmlns:x="adobe:ns:meta/" x:xmptk="Adobe XMP Core 5.6-c138 79.159824, 2016/09/14-01:09:01        ">
   <rdf:RDF xmlns:rdf="http://www.w3.org/1999/02/22-rdf-syntax-ns#">
      <rdf:Description rdf:about=""/>
   </rdf:RDF>
</x:xmpmeta>
                                                                                                    
                                                                                                    
                                                                                                    
                                                                                                    
                                                                                                    
                                                                                                    
                                                                                                    
                                                                                                    
                                                                                                    
                                                                                                    
                                                                                                    
                                                                                                    
                                                                                                    
                                                                                                    
                                                                                                    
                                                                                                    
                                                                                                    
                                                                                                    
                                                                                                    
                                                                                                    
                           
<?xpacket end="w"?></metadata>
<defs>
    <style>
      .cls-1 {
        fill: #fff;
        fill-rule: evenodd;
      }
    </style>
  </defs>
  <path class="cls-1" d="M1223.45,4700.73l-12.67-12.67a3.633,3.633,0,0,0-5.13,0l-20.08,20.08a3.633,3.633,0,0,0,0,5.13l1.56,1.56c0,0.01,0,.01.01,0.01h0l10.49,10.49h-1.45a0.837,0.837,0,0,0-.83.84,0.828,0.828,0,0,0,.83.83h16.66a0.83,0.83,0,0,0,.84-0.83,0.839,0.839,0,0,0-.84-0.84h-8.86l19.47-19.47A3.621,3.621,0,0,0,1223.45,4700.73Zm-1.18,3.95-20.07,20.08a1.959,1.959,0,0,1-1.39.57h-0.01a1.936,1.936,0,0,1-1.38-.57l-10.52-10.51,19.28-19.29a0.827,0.827,0,0,0-1.17-1.17l-19.29,19.28-0.97-.98a1.919,1.919,0,0,1-.57-1.38,1.942,1.942,0,0,1,.57-1.39l20.08-20.08a1.98,1.98,0,0,1,2.78,0l4.5,4.51-19.28,19.28a0.845,0.845,0,0,0,0,1.18,0.858,0.858,0,0,0,.59.24,0.824,0.824,0,0,0,.59-0.24l19.28-19.28,6.98,6.98A1.95,1.95,0,0,1,1222.27,4704.68Zm-17.23,6.39a0.815,0.815,0,0,0-1.17,0l-6.56,6.55a0.827,0.827,0,0,0,0,1.18,0.794,0.794,0,0,0,.59.25,0.827,0.827,0,0,0,.59-0.25l6.55-6.55A0.827,0.827,0,0,0,1205.04,4711.07Zm-2.69,6.22-2.69,2.69a0.845,0.845,0,0,0,0,1.18,0.858,0.858,0,0,0,.59.24,0.824,0.824,0,0,0,.59-0.24l2.69-2.69a0.827,0.827,0,0,0,0-1.18A0.845,0.845,0,0,0,1202.35,4717.29Zm2.48-2.47-0.35.35a0.827,0.827,0,0,0,0,1.18,0.833,0.833,0,0,0,1.17,0l0.36-.35a0.845,0.845,0,0,0,0-1.18A0.827,0.827,0,0,0,1204.83,4714.82Zm11.49-15.02a0.834,0.834,0,0,0-.59-0.25,0.8,0.8,0,0,0-.59.25l-3.54,3.53a0.845,0.845,0,0,0,0,1.18l2.36,2.36a0.824,0.824,0,0,0,.59.24,0.858,0.858,0,0,0,.59-0.24l3.53-3.54a0.827,0.827,0,0,0,0-1.18Zm-1.77,5.3-1.18-1.18,2.36-2.36,1.17,1.18Zm-5.01-11.84a0.841,0.841,0,0,0,.59-0.24l0.35-.35a0.834,0.834,0,0,0-1.18-1.18l-0.35.35a0.827,0.827,0,0,0,0,1.18A0.841,0.841,0,0,0,1209.54,4693.26Zm-16.65,21.71-0.35.36a0.827,0.827,0,0,0,0,1.18,0.833,0.833,0,0,0,1.17,0l0.36-.36A0.834,0.834,0,1,0,1192.89,4714.97Z" transform="translate(-1184.5 -4687)"/>
</svg>
