<svg xmlns="http://www.w3.org/2000/svg" width="32.812" height="40" viewBox="0 0 32.812 40">
  <metadata><?xpacket begin="﻿" id="W5M0MpCehiHzreSzNTczkc9d"?>
<x:xmpmeta xmlns:x="adobe:ns:meta/" x:xmptk="Adobe XMP Core 5.6-c138 79.159824, 2016/09/14-01:09:01        ">
   <rdf:RDF xmlns:rdf="http://www.w3.org/1999/02/22-rdf-syntax-ns#">
      <rdf:Description rdf:about=""/>
   </rdf:RDF>
</x:xmpmeta>
                                                                                                    
                                                                                                    
                                                                                                    
                                                                                                    
                                                                                                    
                                                                                                    
                                                                                                    
                                                                                                    
                                                                                                    
                                                                                                    
                                                                                                    
                                                                                                    
                                                                                                    
                                                                                                    
                                                                                                    
                                                                                                    
                                                                                                    
                                                                                                    
                                                                                                    
                                                                                                    
                           
<?xpacket end="w"?></metadata>
<defs>
    <style>
      .cls-1 {
        fill: #fff;
        fill-rule: evenodd;
      }
    </style>
  </defs>
  <path class="cls-1" d="M397.041,4704.39h-1.568a0.8,0.8,0,0,0-.8.8,0.791,0.791,0,0,0,.8.79h1.568a0.79,0.79,0,0,0,.8-0.79A0.8,0.8,0,0,0,397.041,4704.39Zm21.859,0.8a14.566,14.566,0,1,0-15.363,14.54v2.12a16.639,16.639,0,0,1,0-33.24v0.54a0.8,0.8,0,1,0,1.594,0v-1.28c0-.01,0-0.02,0-0.04s0-.02,0-0.03a0.8,0.8,0,0,0-.8-0.8,18.234,18.234,0,0,0-.8,36.45v1.96h-4.314a0.791,0.791,0,0,0-.8.79,0.8,0.8,0,0,0,.8.8h10.222a0.8,0.8,0,0,0,.8-0.8,0.791,0.791,0,0,0-.8-0.79h-4.314v-5.68A14.58,14.58,0,0,0,418.9,4705.19Zm-11.473,12.6a11.742,11.742,0,0,0,1.316-2.59,19.87,19.87,0,0,0,.629-2,12.906,12.906,0,0,1,3.237,1.97A13.06,13.06,0,0,1,407.427,4717.79Zm6.351-3.72a14.421,14.421,0,0,0-4.051-2.44,33.863,33.863,0,0,0,.576-5.65h6.978A12.93,12.93,0,0,1,413.778,4714.07ZM412.6,4695.2a13.878,13.878,0,0,1-1.967,1.37,0.8,0.8,0,0,0-.3,1.09,0.812,0.812,0,0,0,.694.4,0.8,0.8,0,0,0,.393-0.1,15,15,0,0,0,2.347-1.67,12.958,12.958,0,0,1,3.513,8.1H410.3a28.74,28.74,0,0,0-1.56-9.22,11.433,11.433,0,0,0-1.316-2.58A12.889,12.889,0,0,1,412.6,4695.2Zm-8.266-2.98c1,0,2.089,1.31,2.917,3.51a27.124,27.124,0,0,1,1.458,8.66h-7.442a0.8,0.8,0,0,0-.8.8,0.791,0.791,0,0,0,.8.79h7.442a32.192,32.192,0,0,1-.506,5.13,14.653,14.653,0,0,0-7.738,0,34.4,34.4,0,0,1-.014-11.78,14.654,14.654,0,0,0,3.883.52,14.992,14.992,0,0,0,2.012-.14,0.8,0.8,0,0,0-.218-1.58,13.41,13.41,0,0,1-1.794.13,13,13,0,0,1-3.547-.49,18.518,18.518,0,0,1,.63-2.04C402.245,4693.53,403.336,4692.22,404.334,4692.22Zm-3.093.37a11.433,11.433,0,0,0-1.316,2.58,20.252,20.252,0,0,0-.646,2.07,12.625,12.625,0,0,1-3.236-2.02A12.867,12.867,0,0,1,401.241,4692.59Zm-9.854,13.39h1.836a0.791,0.791,0,0,0,.8-0.79,0.8,0.8,0,0,0-.8-0.8h-1.836a12.93,12.93,0,0,1,3.49-8.07,14.309,14.309,0,0,0,4.05,2.5,35.784,35.784,0,0,0,.014,12.8,14.692,14.692,0,0,0-4.051,2.45A12.93,12.93,0,0,1,391.387,4705.98Zm4.672,9.19a12.894,12.894,0,0,1,3.238-1.97,19.619,19.619,0,0,0,.628,2,11.742,11.742,0,0,0,1.316,2.59A13.066,13.066,0,0,1,396.059,4715.17Zm8.275,2.99c-1,0-2.089-1.32-2.917-3.52a18.813,18.813,0,0,1-.612-1.97,13.213,13.213,0,0,1,7.058,0,18.578,18.578,0,0,1-.612,1.97C406.423,4716.84,405.332,4718.16,404.334,4718.16Z" transform="translate(-386.094 -4687)"/>
</svg>
