<svg xmlns="http://www.w3.org/2000/svg" width="39.969" height="38.12" viewBox="0 0 39.969 38.12">
  <metadata><?xpacket begin="﻿" id="W5M0MpCehiHzreSzNTczkc9d"?>
<x:xmpmeta xmlns:x="adobe:ns:meta/" x:xmptk="Adobe XMP Core 5.6-c138 79.159824, 2016/09/14-01:09:01        ">
   <rdf:RDF xmlns:rdf="http://www.w3.org/1999/02/22-rdf-syntax-ns#">
      <rdf:Description rdf:about=""/>
   </rdf:RDF>
</x:xmpmeta>
                                                                                                    
                                                                                                    
                                                                                                    
                                                                                                    
                                                                                                    
                                                                                                    
                                                                                                    
                                                                                                    
                                                                                                    
                                                                                                    
                                                                                                    
                                                                                                    
                                                                                                    
                                                                                                    
                                                                                                    
                                                                                                    
                                                                                                    
                                                                                                    
                                                                                                    
                                                                                                    
                           
<?xpacket end="w"?></metadata>
<defs>
    <style>
      .cls-1 {
        fill: #fff;
        fill-rule: evenodd;
      }
    </style>
  </defs>
  <path class="cls-1" d="M797.032,4687.93a0.78,0.78,0,1,1-.781.78A0.781,0.781,0,0,1,797.032,4687.93Zm20.82,13.39a0.78,0.78,0,1,1-.782.78A0.781,0.781,0,0,1,817.852,4701.32Zm-15.466-.19a0.78,0.78,0,1,1-.781.78A0.781,0.781,0,0,1,802.386,4701.13Zm23.047,0.65a0.781,0.781,0,0,0-.714-0.46H821.17a0.78,0.78,0,1,0,0,1.56h1.78l-4.653,5.11a0.775,0.775,0,0,0-.142.83l2.259,5.33H803.386l1.212-4.85h8.29a0.784,0.784,0,0,0,.759-0.6l3.125-12.84a0.764,0.764,0,0,0-.145-0.66,0.778,0.778,0,0,0-.614-0.3H797.8l0.3-1.22a2.15,2.15,0,0,0-.36-1.86,2.07,2.07,0,0,0-1.666-.78,3.056,3.056,0,0,0-2.842,2.27l-0.524,2.16a0.031,0.031,0,0,1-.008.02l-3.123,12.84-4.049,16.63a0.785,0.785,0,0,0,.517.93,3.942,3.942,0,0,0,1.177.18,3.8,3.8,0,0,0,3.7-2.9l3.377-13.87h8.694l-1.359,5.44a0.78,0.78,0,0,0,.758.97h19.208a0.779,0.779,0,0,0,.652-0.35,0.769,0.769,0,0,0,.067-0.73l-2.524-5.96,5.508-6.05A0.78,0.78,0,0,0,825.433,4701.78Zm-30.689-8.1a1.493,1.493,0,0,1,1.324-1.07,0.552,0.552,0,0,1,.437.17,0.618,0.618,0,0,1,.071.53l-0.385,1.59h-1.742ZM789.4,4722.8a2.24,2.24,0,0,1-1.088,1.43,2.156,2.156,0,0,1-1.071.28l3.7-15.21h1.741Zm1.926-15.07,1.228-5.04h6.542a0.78,0.78,0,1,0,0-1.56h-6.162l1.136-4.67h20.95l-2.744,11.27h-20.95Z" transform="translate(-785.531 -4687.94)"/>
</svg>
