<svg xmlns="http://www.w3.org/2000/svg" width="29" height="37" viewBox="0 0 29 37">
  <metadata><?xpacket begin="﻿" id="W5M0MpCehiHzreSzNTczkc9d"?>
<x:xmpmeta xmlns:x="adobe:ns:meta/" x:xmptk="Adobe XMP Core 5.6-c138 79.159824, 2016/09/14-01:09:01        ">
   <rdf:RDF xmlns:rdf="http://www.w3.org/1999/02/22-rdf-syntax-ns#">
      <rdf:Description rdf:about=""/>
   </rdf:RDF>
</x:xmpmeta>
                                                                                                    
                                                                                                    
                                                                                                    
                                                                                                    
                                                                                                    
                                                                                                    
                                                                                                    
                                                                                                    
                                                                                                    
                                                                                                    
                                                                                                    
                                                                                                    
                                                                                                    
                                                                                                    
                                                                                                    
                                                                                                    
                                                                                                    
                                                                                                    
                                                                                                    
                                                                                                    
                           
<?xpacket end="w"?></metadata>
<defs>
    <style>
      .cls-1 {
        fill: #fff;
        fill-rule: evenodd;
      }
    </style>
  </defs>
  <path class="cls-1" d="M1219.19,4431h-27.38a0.8,0.8,0,0,1-.8-0.8v-35.4a0.8,0.8,0,0,1,.8-0.8h20.82a0.77,0.77,0,0,1,.56.23l6.57,6.57a0.787,0.787,0,0,1,.23.56v28.84A0.8,0.8,0,0,1,1219.19,4431Zm-5.76-34.28-0.01,3.85,3.85-.01Zm4.97,5.44h-5.77a0.786,0.786,0,0,1-.8-0.8v-5.77H1192.6v33.82h25.8v-27.25Zm-19.23,3.09a3.635,3.635,0,1,1,3.64-3.63A3.636,3.636,0,0,1,1199.17,4405.25Zm0-5.67a2.04,2.04,0,1,0,2.04,2.04A2.042,2.042,0,0,0,1199.17,4399.58Zm10.39,2.71h-4.38a0.8,0.8,0,1,1,0-1.6h4.38A0.8,0.8,0,0,1,1209.56,4402.29Zm-10.67,23.93h-2.31a0.8,0.8,0,0,1-.8-0.8,0.794,0.794,0,0,1,.8-0.79h2.31a0.785,0.785,0,0,1,.79.79A0.794,0.794,0,0,1,1198.89,4426.22Zm15.85,0h-6.93a0.8,0.8,0,0,1-.8-0.8,0.794,0.794,0,0,1,.8-0.79h6.93a0.794,0.794,0,0,1,.8.79A0.8,0.8,0,0,1,1214.74,4426.22Zm0-3.43h-11.79a0.794,0.794,0,0,1-.8-0.79,0.8,0.8,0,0,1,.8-0.8h11.79a0.8,0.8,0,0,1,.8.8A0.794,0.794,0,0,1,1214.74,4422.79Zm0.04-3.29h-18.56a0.8,0.8,0,1,1,0-1.6h18.56A0.8,0.8,0,0,1,1214.78,4419.5Zm0-2.71h-18.56a0.8,0.8,0,0,1-.8-0.8,0.794,0.794,0,0,1,.8-0.79h18.56a0.794,0.794,0,0,1,.8.79A0.8,0.8,0,0,1,1214.78,4416.79Zm0-2.95h-18.56a0.8,0.8,0,0,1-.8-0.8,0.794,0.794,0,0,1,.8-0.79h18.56a0.794,0.794,0,0,1,.8.79A0.8,0.8,0,0,1,1214.78,4413.84Zm0-2.71h-0.44a0.8,0.8,0,0,1,0-1.59h0.44A0.8,0.8,0,1,1,1214.78,4411.13Zm-3.22,0h-15.34a0.8,0.8,0,1,1,0-1.59h15.34A0.8,0.8,0,0,1,1211.56,4411.13Z" transform="translate(-1191 -4394)"/>
</svg>
