<svg xmlns="http://www.w3.org/2000/svg" width="48.843" height="50" viewBox="0 0 48.843 50">
  <metadata><?xpacket begin="﻿" id="W5M0MpCehiHzreSzNTczkc9d"?>
<x:xmpmeta xmlns:x="adobe:ns:meta/" x:xmptk="Adobe XMP Core 5.6-c138 79.159824, 2016/09/14-01:09:01        ">
   <rdf:RDF xmlns:rdf="http://www.w3.org/1999/02/22-rdf-syntax-ns#">
      <rdf:Description rdf:about=""/>
   </rdf:RDF>
</x:xmpmeta>
                                                                                                    
                                                                                                    
                                                                                                    
                                                                                                    
                                                                                                    
                                                                                                    
                                                                                                    
                                                                                                    
                                                                                                    
                                                                                                    
                                                                                                    
                                                                                                    
                                                                                                    
                                                                                                    
                                                                                                    
                                                                                                    
                                                                                                    
                                                                                                    
                                                                                                    
                                                                                                    
                           
<?xpacket end="w"?></metadata>
<defs>
    <style>
      .cls-1 {
        fill: #73b6cc;
        fill-rule: evenodd;
      }
    </style>
  </defs>
  <path class="cls-1" d="M814.185,3838.06a3.5,3.5,0,0,0-2.542-1.1h-2.291a3.481,3.481,0,0,0-3.476,3.71l0.1,1.56h0l0.237,3.64a4.292,4.292,0,0,0,8.565,0l0.271-4.16,0.068-1.04A3.494,3.494,0,0,0,814.185,3838.06Zm-6.321,2.48a1.489,1.489,0,0,1,1.488-1.59h1.573l-0.28.74a4.011,4.011,0,0,1-2.747,1.37Zm4.928,5.2a2.3,2.3,0,0,1-4.589,0l-0.175-2.68a7.145,7.145,0,0,0,3.372-1.32,3.41,3.41,0,0,0,.4.23,6.43,6.43,0,0,0,1.211.44Zm-0.08-5.54a0.95,0.95,0,0,1-.108-0.06l0.227-.6a1.484,1.484,0,0,1,.3.83A2.91,2.91,0,0,1,812.712,3840.2Zm8.219,17.63-0.379-2.1a6.467,6.467,0,0,0-5.131-5.17,6.812,6.812,0,0,0-1.192-.11h-1.143a1.024,1.024,0,0,0-.7.29l-1.885,1.89-1.884-1.89a1.024,1.024,0,0,0-.7-0.29h-1.143a6.8,6.8,0,0,0-1.192.11,6.467,6.467,0,0,0-5.131,5.17l-0.379,2.1a0.977,0.977,0,0,0,.215.81,0.987,0.987,0,0,0,.765.36h18.907A1,1,0,0,0,820.931,3857.83Zm-18.694-.82,0.166-.92a4.46,4.46,0,0,1,3.54-3.57,4.554,4.554,0,0,1,.823-0.08h0.73l2.3,2.3a1,1,0,0,0,1.409,0l2.3-2.3h0.729a4.556,4.556,0,0,1,.824.08,4.46,4.46,0,0,1,3.54,3.57l0.166,0.92H802.237Zm39.93-18.95a3.5,3.5,0,0,0-2.542-1.1h-2.29a3.481,3.481,0,0,0-3.477,3.71l0.1,1.56h0l0.237,3.64a4.292,4.292,0,0,0,8.565,0l0.271-4.16,0.068-1.04A3.5,3.5,0,0,0,842.167,3838.06Zm-6.321,2.48a1.489,1.489,0,0,1,1.489-1.59h1.572l-0.28.74a4.015,4.015,0,0,1-2.747,1.37Zm4.928,5.2a2.3,2.3,0,0,1-4.589,0l-0.175-2.68a7.145,7.145,0,0,0,3.372-1.32,3.494,3.494,0,0,0,.4.23,6.457,6.457,0,0,0,1.211.44Zm-0.08-5.54a0.852,0.852,0,0,1-.107-0.06l0.226-.6a1.484,1.484,0,0,1,.3.83A2.91,2.91,0,0,1,840.694,3840.2Zm8.219,17.63-0.379-2.1a6.467,6.467,0,0,0-5.131-5.17,6.812,6.812,0,0,0-1.192-.11h-1.143a1.024,1.024,0,0,0-.7.29l-1.884,1.89-1.885-1.89a1.024,1.024,0,0,0-.705-0.29h-1.142a6.8,6.8,0,0,0-1.192.11,6.467,6.467,0,0,0-5.131,5.17l-0.379,2.1a0.977,0.977,0,0,0,.215.81,0.988,0.988,0,0,0,.765.36h18.907a0.986,0.986,0,0,0,.764-0.36A0.974,0.974,0,0,0,848.913,3857.83Zm-18.7-.82,0.167-.92a4.46,4.46,0,0,1,3.54-3.57,4.554,4.554,0,0,1,.823-0.08h0.73l2.3,2.3a1,1,0,0,0,1.409,0l2.3-2.3h0.73a4.554,4.554,0,0,1,.823.08,4.46,4.46,0,0,1,3.54,3.57l0.166,0.92H830.218Zm-2.042-46.91a3.5,3.5,0,0,0-2.543-1.1h-2.29a3.481,3.481,0,0,0-3.476,3.71l0.1,1.56,0.237,3.65a4.271,4.271,0,0,0,2.215,3.48,4.3,4.3,0,0,0,4.136,0,4.272,4.272,0,0,0,2.214-3.48l0.271-4.17,0.068-1.04A3.5,3.5,0,0,0,828.176,3810.1Zm-6.321,2.48a1.489,1.489,0,0,1,1.488-1.59h1.573l-0.28.75a4.059,4.059,0,0,1-2.747,1.37Zm4.928,5.21a2.3,2.3,0,0,1-4.589,0l-0.175-2.69a7.154,7.154,0,0,0,3.373-1.32c0.12,0.08.253,0.16,0.4,0.24a6.554,6.554,0,0,0,1.211.43Zm-0.08-5.54a0.416,0.416,0,0,0-.108-0.06l0.227-.61a1.484,1.484,0,0,1,.3.83A3.481,3.481,0,0,1,826.7,3812.25Zm8.219,17.62-0.379-2.09a6.455,6.455,0,0,0-5.131-5.17,5.97,5.97,0,0,0-1.192-.11h-1.143a0.981,0.981,0,0,0-.7.29l-1.885,1.88-1.884-1.88a0.991,0.991,0,0,0-.705-0.3h-1.142a5.98,5.98,0,0,0-1.192.12,6.455,6.455,0,0,0-5.131,5.17l-0.379,2.09a0.986,0.986,0,0,0,.98,1.17h18.907A0.986,0.986,0,0,0,834.922,3829.87Zm-18.694-.82,0.166-.92a4.46,4.46,0,0,1,3.54-3.57,4.543,4.543,0,0,1,.823-0.07h0.73l2.3,2.29a1,1,0,0,0,1.409,0l2.3-2.29h0.729a4.546,4.546,0,0,1,.824.07,4.46,4.46,0,0,1,3.54,3.57l0.166,0.92H816.228Zm7.96,3.8a1,1,0,0,0-1,1v0.3a1,1,0,1,0,1.992,0v-0.3A1,1,0,0,0,824.188,3832.85Zm7,11.39-6-3.46v-3.73a1,1,0,1,0-1.992,0v3.73h0l-6,3.46a1,1,0,0,0,1,1.73l6-3.47,6,3.47A1,1,0,0,0,831.185,3844.24Z" transform="translate(-800.063 -3809)"/>
</svg>
