<svg xmlns="http://www.w3.org/2000/svg" width="50" height="50" viewBox="0 0 50 50">
  <metadata><?xpacket begin="﻿" id="W5M0MpCehiHzreSzNTczkc9d"?>
<x:xmpmeta xmlns:x="adobe:ns:meta/" x:xmptk="Adobe XMP Core 5.6-c138 79.159824, 2016/09/14-01:09:01        ">
   <rdf:RDF xmlns:rdf="http://www.w3.org/1999/02/22-rdf-syntax-ns#">
      <rdf:Description rdf:about=""/>
   </rdf:RDF>
</x:xmpmeta>
                                                                                                    
                                                                                                    
                                                                                                    
                                                                                                    
                                                                                                    
                                                                                                    
                                                                                                    
                                                                                                    
                                                                                                    
                                                                                                    
                                                                                                    
                                                                                                    
                                                                                                    
                                                                                                    
                                                                                                    
                                                                                                    
                                                                                                    
                                                                                                    
                                                                                                    
                                                                                                    
                           
<?xpacket end="w"?></metadata>
<defs>
    <style>
      .cls-1 {
        fill: #73b6cc;
        fill-rule: evenodd;
      }
    </style>
  </defs>
  <path class="cls-1" d="M1375.27,3842.61a2.535,2.535,0,1,0,2.54,2.54A2.544,2.544,0,0,0,1375.27,3842.61Zm0,3.12a0.585,0.585,0,1,1,.58-0.58A0.583,0.583,0,0,1,1375.27,3845.73Zm7.84-6.36a0.978,0.978,0,0,0-1.39,0,0.99,0.99,0,0,0,0,1.38,0.978,0.978,0,0,0,1.39,0A0.99,0.99,0,0,0,1383.11,3839.37Zm12.51-15.31h-1.06l-13.77-13.77a0.96,0.96,0,0,0-1.38,0l-3.53,3.53-14.11-3.79a0.977,0.977,0,0,0-1.2.69l-3.57,13.34h-2.4a4.106,4.106,0,0,0-4.1,4.1v26.96a4.887,4.887,0,0,0,4.88,4.88h40.24a4.887,4.887,0,0,0,4.88-4.88v-26.18A4.887,4.887,0,0,0,1395.62,3824.06Zm-0.88,1.95h0.88a2.941,2.941,0,0,1,2.93,2.93v7.83a2.313,2.313,0,0,1-2.32,2.31h-1v-3.89a4.9,4.9,0,0,0-4.78-4.88Zm-17.88-10.41v-0.01l3.24-3.23,12.77,12.77-5.15,5.15h-1.79l2.34-2.34a0.978,0.978,0,0,0,0-1.38,2.034,2.034,0,0,1,0-2.87,0.978,0.978,0,0,0,0-1.38l-5.36-5.35a0.978,0.978,0,0,0-1.38,0,2.034,2.034,0,0,1-2.87,0,0.978,0.978,0,0,0-1.38,0l-13.32,13.32h-1.78Zm-2.87,11.01a4.674,4.674,0,0,0-4.56,3.67h-2.7l11.33-11.33a4.027,4.027,0,0,0,4.08,0l4.14,4.14a4.027,4.027,0,0,0,0,4.08l-3.11,3.11h-4.63A4.663,4.663,0,0,0,1373.99,3826.61Zm2.52,3.67h-5.04A2.706,2.706,0,0,1,1376.51,3830.28Zm-15.37-1.73,2.59-9.65a3.935,3.935,0,0,0,2.05-.54,3.877,3.877,0,0,0,1.48-1.5l4.4,1.18-6.38,6.37Zm1.06-16.38,12.08,3.24-1.03,1.03-6.31-1.69a0.973,0.973,0,0,0-1.19.69,2.033,2.033,0,0,1-2.49,1.43,0.971,0.971,0,0,0-1.19.69l-3.42,12.75h-1.31Zm-7.6,13.84h1.87l-1.15,4.3h-0.72A2.15,2.15,0,0,1,1354.6,3826.01Zm43.95,29.11a2.941,2.941,0,0,1-2.93,2.93h-1.37a4.892,4.892,0,0,0,.98-2.93v-3.93h0.58a4.641,4.641,0,0,0,2.74-.88v4.81Zm0-8.61a2.742,2.742,0,0,1-2.74,2.73H1375.3a4.1,4.1,0,1,1,0-8.2h2.96a0.98,0.98,0,0,0,0-1.96h-2.96a6.055,6.055,0,0,0,0,12.11h17.97v3.93a2.937,2.937,0,0,1-2.88,2.93h-33.25v-11a0.975,0.975,0,1,0-1.95,0v10.99a2.931,2.931,0,0,1-2.74-2.92v-23.47a4.078,4.078,0,0,0,2.15.61h35.74a2.934,2.934,0,0,1,2.93,2.93v3.89h-7.06a0.98,0.98,0,0,0,0,1.96h10.02a4.216,4.216,0,0,0,2.32-.69v6.16h0Zm-41.69-3.96a0.978,0.978,0,0,0-1.39,0,0.99,0.99,0,0,0,0,1.38,0.978,0.978,0,0,0,1.39,0A0.99,0.99,0,0,0,1356.86,3842.55Z" transform="translate(-1350.5 -3810)"/>
</svg>
