<svg xmlns="http://www.w3.org/2000/svg" width="50" height="49.44" viewBox="0 0 50 49.44">
  <metadata><?xpacket begin="﻿" id="W5M0MpCehiHzreSzNTczkc9d"?>
<x:xmpmeta xmlns:x="adobe:ns:meta/" x:xmptk="Adobe XMP Core 5.6-c138 79.159824, 2016/09/14-01:09:01        ">
   <rdf:RDF xmlns:rdf="http://www.w3.org/1999/02/22-rdf-syntax-ns#">
      <rdf:Description rdf:about=""/>
   </rdf:RDF>
</x:xmpmeta>
                                                                                                    
                                                                                                    
                                                                                                    
                                                                                                    
                                                                                                    
                                                                                                    
                                                                                                    
                                                                                                    
                                                                                                    
                                                                                                    
                                                                                                    
                                                                                                    
                                                                                                    
                                                                                                    
                                                                                                    
                                                                                                    
                                                                                                    
                                                                                                    
                                                                                                    
                                                                                                    
                           
<?xpacket end="w"?></metadata>
<defs>
    <style>
      .cls-1 {
        fill: #73b6cc;
        fill-rule: evenodd;
      }
    </style>
  </defs>
  <path class="cls-1" d="M1103.89,3842.07a1.88,1.88,0,1,1,2.15-1.86,0.98,0.98,0,0,0,1.96,0,3.9,3.9,0,0,0-3.13-3.71V3836a0.975,0.975,0,1,0-1.95,0v0.5a3.9,3.9,0,0,0-3.13,3.71,3.969,3.969,0,0,0,4.1,3.81,1.878,1.878,0,1,1-2.14,1.86,0.98,0.98,0,0,0-1.96,0,3.89,3.89,0,0,0,3.13,3.7V3850a0.975,0.975,0,1,0,1.95,0v-0.42a3.89,3.89,0,0,0,3.13-3.7A3.971,3.971,0,0,0,1103.89,3842.07Zm10.7-5.81a12.7,12.7,0,0,0-5.2-4.6,0.971,0.971,0,0,0-1.3.45,0.986,0.986,0,0,0,.46,1.31,10.752,10.752,0,0,1,4.84,14.72,0.983,0.983,0,0,0,.86,1.44,0.967,0.967,0,0,0,.86-0.52A12.717,12.717,0,0,0,1114.59,3836.26Zm-9.16-5.85h-0.07a0.975,0.975,0,0,0,0,1.95h0.06A0.975,0.975,0,1,0,1105.43,3830.41Zm-6.18,22.38a10.752,10.752,0,0,1-4.84-14.72,0.98,0.98,0,0,0-1.73-.92,12.828,12.828,0,0,0-1.48,5.96,12.728,12.728,0,0,0,7.2,11.44,0.965,0.965,0,0,0,.43.1A0.977,0.977,0,0,0,1099.25,3852.79Zm3.18,1.06h-0.05a0.975,0.975,0,1,0-.01,1.95h0.06A0.975,0.975,0,1,0,1102.43,3853.85Zm5.9-26.74a4.377,4.377,0,0,0-.43-0.8h2.54a4.5,4.5,0,0,0,0-8.99h-7.82a4.414,4.414,0,0,0,.79-2.53,4.5,4.5,0,0,0-4.49-4.5h-23.93a4.5,4.5,0,0,0,0,8.99h7.82a4.5,4.5,0,0,0-.79,2.54,4.546,4.546,0,0,0,.79,2.54h-2.54a54.724,54.724,0,0,1-4.5,11.52,4.484,4.484,0,0,1,0,7.03,4.484,4.484,0,0,1,0,7.03,4.5,4.5,0,0,0,4.5,4.49h11.5A16.6,16.6,0,1,0,1108.33,3827.11Zm2.11-7.83a2.54,2.54,0,0,1,0,5.08h-23.92a2.54,2.54,0,0,1,0-5.08h23.92Zm-35.45-1.96a2.535,2.535,0,1,1,0-5.07h23.93a2.535,2.535,0,1,1,0,5.07h-23.93Zm5.28,8.99h23.92a2.614,2.614,0,0,1,1.11.25c-0.46-.03-0.93-0.06-1.4-0.06a16.534,16.534,0,0,0-11.75,4.89h-11.88A2.54,2.54,0,0,1,1080.27,3826.31Zm0,7.03h10.21a16.63,16.63,0,0,0-2.51,5.08h-7.7A2.54,2.54,0,1,1,1080.27,3833.34Zm0,7.03h7.25a17.57,17.57,0,0,0-.22,2.74,16.525,16.525,0,0,0,.16,2.34h-7.19A2.54,2.54,0,0,1,1080.27,3840.37Zm0,12.11a2.54,2.54,0,0,1,0-5.08h7.59a16.688,16.688,0,0,0,2.34,5.08h-9.93Zm23.63,5.27a14.645,14.645,0,1,1,14.65-14.64A14.662,14.662,0,0,1,1103.9,3857.75Z" transform="translate(-1070.5 -3810.28)"/>
</svg>
