<svg xmlns="http://www.w3.org/2000/svg" width="48.375" height="50" viewBox="0 0 48.375 50">
  <metadata><?xpacket begin="﻿" id="W5M0MpCehiHzreSzNTczkc9d"?>
<x:xmpmeta xmlns:x="adobe:ns:meta/" x:xmptk="Adobe XMP Core 5.6-c138 79.159824, 2016/09/14-01:09:01        ">
   <rdf:RDF xmlns:rdf="http://www.w3.org/1999/02/22-rdf-syntax-ns#">
      <rdf:Description rdf:about=""/>
   </rdf:RDF>
</x:xmpmeta>
                                                                                                    
                                                                                                    
                                                                                                    
                                                                                                    
                                                                                                    
                                                                                                    
                                                                                                    
                                                                                                    
                                                                                                    
                                                                                                    
                                                                                                    
                                                                                                    
                                                                                                    
                                                                                                    
                                                                                                    
                                                                                                    
                                                                                                    
                                                                                                    
                                                                                                    
                                                                                                    
                           
<?xpacket end="w"?></metadata>
<defs>
    <style>
      .cls-1 {
        fill: #73b6cc;
        fill-rule: evenodd;
      }
    </style>
  </defs>
  <path class="cls-1" d="M560.8,3810H526.453a0.88,0.88,0,1,0,0,1.76h33.466v43.13H516.788v-7.39h2.177v4.33a0.878,0.878,0,0,0,.881.88h5.072a0.88,0.88,0,1,0,0-1.76h-4.192v-3.45h0.76a0.884,0.884,0,0,0,.88-0.88v-8.86a0.877,0.877,0,0,0-.88-0.88h-0.76v-7.1h0.76a0.884,0.884,0,0,0,.88-0.88v-8.86a0.877,0.877,0,0,0-.88-0.88h-0.76v-3.46h35.255v4.75a0.881,0.881,0,0,0,1.761,0v-5.63a0.878,0.878,0,0,0-.881-0.88H519.846a0.878,0.878,0,0,0-.881.88v4.34h-2.177v-7.4h6.6a0.88,0.88,0,0,0,0-1.76h-7.476a0.878,0.878,0,0,0-.881.88v8.28H514.2a0.878,0.878,0,0,0-.881.88v8.86a0.884,0.884,0,0,0,.881.88h0.826v7.1H514.2a0.878,0.878,0,0,0-.881.88v8.86a0.884,0.884,0,0,0,.881.88h0.826v8.27a0.878,0.878,0,0,0,.881.88h3.549v2.47a0.877,0.877,0,0,0,.88.88h9.255a0.877,0.877,0,0,0,.88-0.88v-2.47h15.763v2.47a0.877,0.877,0,0,0,.88.88h9.255a0.877,0.877,0,0,0,.88-0.88v-2.47h3.55a0.877,0.877,0,0,0,.88-0.88v-44.89A0.878,0.878,0,0,0,560.8,3810Zm-45.718,18.02v-7.1h5.524v7.1h-5.524Zm3.884,1.76v7.1h-2.177v-7.1h2.177Zm-3.884,15.96v-7.1h5.524v7.1h-5.524Zm6.137,12.5v-1.59h7.493v1.59h-7.493Zm34.271,0H548v-1.59h7.493v1.59Zm1.372-35.6a0.884,0.884,0,0,0-.88.88v27.43H527.987a0.88,0.88,0,1,0,0,1.76h28.874a0.878,0.878,0,0,0,.881-0.88v-28.31A0.885,0.885,0,0,0,556.861,3822.64Zm-18.13,1.03a9.645,9.645,0,1,0,9.646,9.65A9.659,9.659,0,0,0,538.731,3823.67Zm7.835,8.77h-3.3a4.681,4.681,0,0,0-.707-1.71l2.33-2.33A7.87,7.87,0,0,1,546.566,3832.44Zm-6.954-6.96a7.824,7.824,0,0,1,4.034,1.68l-2.33,2.33a4.646,4.646,0,0,0-1.7-.71v-3.3Zm-1.761,0v3.3h0a4.644,4.644,0,0,0-1.705.71l-2.33-2.33A7.823,7.823,0,0,1,537.851,3825.48Zm-5.28,2.92,2.33,2.33a4.681,4.681,0,0,0-.707,1.71h-3.3A7.878,7.878,0,0,1,532.571,3828.4Zm-1.675,5.8h3.3a4.564,4.564,0,0,0,.707,1.7l-2.33,2.33A7.845,7.845,0,0,1,530.9,3834.2Zm6.955,6.95a7.9,7.9,0,0,1-4.035-1.67l2.33-2.33a4.82,4.82,0,0,0,1.705.71v3.29Zm-1.981-7.83a2.861,2.861,0,1,1,2.861,2.86A2.862,2.862,0,0,1,535.87,3833.32Zm3.742,7.83v-3.29h0a4.82,4.82,0,0,0,1.705-.71l2.33,2.33A7.9,7.9,0,0,1,539.612,3841.15Zm5.279-2.92-2.33-2.33a4.564,4.564,0,0,0,.707-1.7h3.3A7.836,7.836,0,0,1,544.891,3838.23Z" transform="translate(-513.313 -3810)"/>
</svg>
