<svg xmlns="http://www.w3.org/2000/svg" width="29.25" height="29.219" viewBox="0 0 29.25 29.219">
  <metadata><?xpacket begin="﻿" id="W5M0MpCehiHzreSzNTczkc9d"?>
<x:xmpmeta xmlns:x="adobe:ns:meta/" x:xmptk="Adobe XMP Core 5.6-c138 79.159824, 2016/09/14-01:09:01        ">
   <rdf:RDF xmlns:rdf="http://www.w3.org/1999/02/22-rdf-syntax-ns#">
      <rdf:Description rdf:about=""/>
   </rdf:RDF>
</x:xmpmeta>
                                                                                                    
                                                                                                    
                                                                                                    
                                                                                                    
                                                                                                    
                                                                                                    
                                                                                                    
                                                                                                    
                                                                                                    
                                                                                                    
                                                                                                    
                                                                                                    
                                                                                                    
                                                                                                    
                                                                                                    
                                                                                                    
                                                                                                    
                                                                                                    
                                                                                                    
                                                                                                    
                           
<?xpacket end="w"?></metadata>
<defs>
    <style>
      .cls-1 {
        fill: #a5345c;
        fill-rule: evenodd;
      }
    </style>
  </defs>
  <path id="Shape_4_copy" data-name="Shape 4 copy" class="cls-1" d="M1334.85,10.364a14.615,14.615,0,1,1-14.62,14.615A14.612,14.612,0,0,1,1334.85,10.364Zm-7.51,14.013a8.581,8.581,0,0,1,7.27-7.04L1334.42,16a9.947,9.947,0,0,0-8.41,8.154Zm3.86-3.215a5.961,5.961,0,0,0-1.67,3.218l1.33,0.227a4.657,4.657,0,0,1,1.29-2.488,4.6,4.6,0,0,1,2.63-1.312l-0.19-1.341A5.889,5.889,0,0,0,1331.2,21.163Zm6.51,4.31a13.21,13.21,0,0,1-3.22,2.929c-0.26.166-.56,0.289-0.84,0.441a0.247,0.247,0,0,1-.35-0.065c-0.43-.434-0.86-0.861-1.29-1.287a1.217,1.217,0,0,0-1.84,0q-1.035,1.03-2.07,2.065a1.233,1.233,0,0,0,.01,1.873c0.39,0.394.81,0.77,1.18,1.183a2.311,2.311,0,0,0,1.98.756,8.243,8.243,0,0,0,3.16-.919,17.306,17.306,0,0,0,5.7-4.459,15.849,15.849,0,0,0,2.78-4.631,5.984,5.984,0,0,0,.46-2.578,2.075,2.075,0,0,0-.66-1.414c-0.44-.42-0.86-0.857-1.29-1.284a1.225,1.225,0,0,0-1.84,0c-0.35.343-.69,0.694-1.04,1.041l-1.01,1.012a1.224,1.224,0,0,0,0,1.884c0.42,0.426.84,0.853,1.27,1.269a0.263,0.263,0,0,1,.06.34A7.412,7.412,0,0,1,1337.71,25.473Z" transform="translate(-1320.22 -10.375)"/>
</svg>
