<svg xmlns="http://www.w3.org/2000/svg" width="12.44" height="16.188" viewBox="0 0 12.44 16.188">
  <metadata><?xpacket begin="﻿" id="W5M0MpCehiHzreSzNTczkc9d"?>
<x:xmpmeta xmlns:x="adobe:ns:meta/" x:xmptk="Adobe XMP Core 5.6-c138 79.159824, 2016/09/14-01:09:01        ">
   <rdf:RDF xmlns:rdf="http://www.w3.org/1999/02/22-rdf-syntax-ns#">
      <rdf:Description rdf:about=""/>
   </rdf:RDF>
</x:xmpmeta>
                                                                                                    
                                                                                                    
                                                                                                    
                                                                                                    
                                                                                                    
                                                                                                    
                                                                                                    
                                                                                                    
                                                                                                    
                                                                                                    
                                                                                                    
                                                                                                    
                                                                                                    
                                                                                                    
                                                                                                    
                                                                                                    
                                                                                                    
                                                                                                    
                                                                                                    
                                                                                                    
                           
<?xpacket end="w"?></metadata>
<defs>
    <style>
      .cls-1 {
        fill: #6ce;
        fill-rule: evenodd;
      }
    </style>
  </defs>
  <path class="cls-1" d="M1227.31,279.444H1227v-1.477a5.037,5.037,0,0,0-4.88-5.061c-0.07,0-.22,0-0.3,0a5.035,5.035,0,0,0-4.87,5.061v1.477h-0.32a1.027,1.027,0,0,0-.88,1.122v7.406a1.031,1.031,0,0,0,.88,1.125h10.68a1.031,1.031,0,0,0,.89-1.125v-7.406A1.027,1.027,0,0,0,1227.31,279.444Zm-4.34,4.817V286.5a0.475,0.475,0,0,1-.47.473h-1.06a0.481,0.481,0,0,1-.47-0.473v-2.238a1.358,1.358,0,0,1,.85-2.305c0.08,0,.23,0,0.3,0A1.35,1.35,0,0,1,1222.97,284.261Zm1.95-4.817h-5.89v-1.477a2.945,2.945,0,1,1,5.89,0v1.477h0Z" transform="translate(-1215.75 -272.906)"/>
</svg>
