<svg xmlns="http://www.w3.org/2000/svg" width="50" height="49.12" viewBox="0 0 50 49.12">
  <metadata><?xpacket begin="﻿" id="W5M0MpCehiHzreSzNTczkc9d"?>
<x:xmpmeta xmlns:x="adobe:ns:meta/" x:xmptk="Adobe XMP Core 5.6-c138 79.159824, 2016/09/14-01:09:01        ">
   <rdf:RDF xmlns:rdf="http://www.w3.org/1999/02/22-rdf-syntax-ns#">
      <rdf:Description rdf:about=""/>
   </rdf:RDF>
</x:xmpmeta>
                                                                                                    
                                                                                                    
                                                                                                    
                                                                                                    
                                                                                                    
                                                                                                    
                                                                                                    
                                                                                                    
                                                                                                    
                                                                                                    
                                                                                                    
                                                                                                    
                                                                                                    
                                                                                                    
                                                                                                    
                                                                                                    
                                                                                                    
                                                                                                    
                                                                                                    
                                                                                                    
                           
<?xpacket end="w"?></metadata>
<defs>
    <style>
      .cls-1 {
        fill: #a5345c;
        fill-rule: evenodd;
      }
    </style>
  </defs>
  <path class="cls-1" d="M703.132,1825.44h44.736a2.63,2.63,0,1,1,0,5.26H703.132A2.63,2.63,0,1,1,703.132,1825.44Zm0,3.51h44.736a0.88,0.88,0,0,0,0-1.76H703.132A0.88,0.88,0,0,0,703.132,1828.95Zm0,28.94h44.736a2.635,2.635,0,0,1,0,5.27H703.132A2.635,2.635,0,0,1,703.132,1857.89Zm0,3.51h44.736a0.875,0.875,0,1,0,0-1.75H703.132A0.875,0.875,0,1,0,703.132,1861.4Zm15.887,7.9h12.962a1.853,1.853,0,0,1,1.852,1.85v1.56a1.853,1.853,0,0,1-1.852,1.85H719.019a1.853,1.853,0,0,1-1.852-1.85v-1.56A1.853,1.853,0,0,1,719.019,1869.3Zm-0.1,3.41a0.1,0.1,0,0,0,.1.1h12.962a0.1,0.1,0,0,0,.1-0.1v-1.56a0.1,0.1,0,0,0-.1-0.1H719.019a0.1,0.1,0,0,0-.1.1v1.56h0Zm-14.912-43.76h42.982a0.874,0.874,0,0,1,.877.87v28.95a0.876,0.876,0,0,1-.877.88H704.009a0.876,0.876,0,0,1-.877-0.88v-28.95A0.873,0.873,0,0,1,704.009,1828.95Zm0.877,28.94h41.228V1830.7H704.886v27.19h0Zm19.3,3.51a0.882,0.882,0,0,1,.877.88v7.02h0.877v-7.02a0.878,0.878,0,1,1,1.755,0v7.9a0.874,0.874,0,0,1-.877.87h-2.632a0.874,0.874,0,0,1-.877-0.87v-7.9A0.883,0.883,0,0,1,724.184,1861.4Zm9.649-28.07h3.509a0.883,0.883,0,0,1,.877.88v20.18a0.874,0.874,0,0,1-.877.87h-3.509a0.874,0.874,0,0,1-.877-0.87v-20.18A0.883,0.883,0,0,1,733.833,1833.33Zm0.878,20.18h1.754v-18.42h-1.754v18.42Zm-7.895-17.54h3.509a0.874,0.874,0,0,1,.877.87v17.55a0.874,0.874,0,0,1-.877.87h-3.509a0.874,0.874,0,0,1-.877-0.87v-17.55A0.874,0.874,0,0,1,726.816,1835.97Zm0.877,17.54h1.754v-15.79h-1.754v15.79ZM719.8,1838.6h3.509a0.874,0.874,0,0,1,.877.87v14.92a0.874,0.874,0,0,1-.877.87H719.8a0.874,0.874,0,0,1-.877-0.87v-14.92A0.874,0.874,0,0,1,719.8,1838.6Zm0.877,14.91h1.755v-13.16h-1.755v13.16Zm-7.894-11.4h3.509a0.874,0.874,0,0,1,.877.87v11.41a0.874,0.874,0,0,1-.877.87h-3.509a0.873,0.873,0,0,1-.877-0.87v-11.41A0.873,0.873,0,0,1,712.781,1842.11Zm0.877,11.4h1.754v-9.65h-1.754v9.65Z" transform="translate(-700.5 -1825.44)"/>
</svg>
