<svg xmlns="http://www.w3.org/2000/svg" width="50" height="50" viewBox="0 0 50 50">
  <metadata><?xpacket begin="﻿" id="W5M0MpCehiHzreSzNTczkc9d"?>
<x:xmpmeta xmlns:x="adobe:ns:meta/" x:xmptk="Adobe XMP Core 5.6-c138 79.159824, 2016/09/14-01:09:01        ">
   <rdf:RDF xmlns:rdf="http://www.w3.org/1999/02/22-rdf-syntax-ns#">
      <rdf:Description rdf:about=""/>
   </rdf:RDF>
</x:xmpmeta>
                                                                                                    
                                                                                                    
                                                                                                    
                                                                                                    
                                                                                                    
                                                                                                    
                                                                                                    
                                                                                                    
                                                                                                    
                                                                                                    
                                                                                                    
                                                                                                    
                                                                                                    
                                                                                                    
                                                                                                    
                                                                                                    
                                                                                                    
                                                                                                    
                                                                                                    
                                                                                                    
                           
<?xpacket end="w"?></metadata>
<defs>
    <style>
      .cls-1 {
        fill: #a5345c;
        fill-rule: evenodd;
      }
    </style>
  </defs>
  <path class="cls-1" d="M1216.18,1831.32a25.011,25.011,0,1,0,7.32,17.68A24.84,24.84,0,0,0,1216.18,1831.32Zm-5.96,3.43,1.1-4.57a22.866,22.866,0,0,1,9.12,12.69l-0.58.11a2.262,2.262,0,0,0-1.76,1.67l-0.22.9a0.053,0.053,0,0,1-.02.03,0.028,0.028,0,0,1-.03-0.01l-1.34-1a2.25,2.25,0,0,0-2.39-.19l-1.67.87a2.208,2.208,0,0,0-1.2,2.13,2.232,2.232,0,0,0,1.45,1.98l0.08,0.03a0.016,0.016,0,0,1,.02.02,0.032,0.032,0,0,1,0,.03l-1.04,1.19a0.06,0.06,0,0,1-.04.01l-2.8-1.81a2.257,2.257,0,0,0-3.44,1.53l-0.22,1.32a2.252,2.252,0,0,0,.68,2.01l1.46,1.36a0.048,0.048,0,0,1,.01.05l-2.38,3.6a2.336,2.336,0,0,0-.37,1.15l-0.21,5.15a0.037,0.037,0,0,1-.01.03l-3.16,3.1a0.03,0.03,0,0,1-.04,0l-2.05-1.2a0.02,0.02,0,0,1-.01-0.02s-1-4.52-1.04-4.62l-0.9-2.43a2.28,2.28,0,0,0-1.92-1.46l-4.14-.36c-0.01,0-.02,0-0.02-0.01l-2.36-4.06c0-.01-0.01-0.02,0-0.02l0.59-3.94c0-.01,0-0.02.01-0.02l3.62-2.73a0.037,0.037,0,0,1,.03-0.01l3.5,1.46a2.26,2.26,0,0,0,.63.17l4.85,0.52a2.216,2.216,0,0,0,1.56-.41l3.22-2.3a2.273,2.273,0,0,0,.74-2.75l-0.3-.67a2.218,2.218,0,0,0-1.93-1.33l-9.04-.5h-0.01l-0.01-.01h0a0.053,0.053,0,0,1,0-.04,0.035,0.035,0,0,1,.02-0.01l2.71-.73a2.237,2.237,0,0,0,.96-0.54l3.32-3.13a0.031,0.031,0,0,0,.02-0.01l4.99-.51A2.271,2.271,0,0,0,1210.22,1834.75Zm-16.91-1.84,1.87-3.51a2.564,2.564,0,0,0,.24-1.7l-0.25-1.23a22.9,22.9,0,0,1,3.33-.25,23.312,23.312,0,0,1,3.36.25s-0.27.29-.31,0.31l-2.65,1.06a2.628,2.628,0,0,0-.98.71l-4.12,4.81a0.333,0.333,0,0,1-.22.11,0.345,0.345,0,0,1-.25-0.11A0.473,0.473,0,0,1,1193.31,1832.91Zm-9.71-1.12v3.33a2.714,2.714,0,0,1-1.25,2.29l-2.39,1.56a5.176,5.176,0,0,0-1.4,1.36l-2.17,3.18A22.82,22.82,0,0,1,1183.6,1831.79Zm1.45,32.79-0.31,2.56a22.867,22.867,0,0,1-7.79-10.76h1.42a0.491,0.491,0,0,1,.42.24l2.86,4.45a2.633,2.633,0,0,0,.46.54l2.78,2.54A0.5,0.5,0,0,1,1185.05,1864.58Zm13.45,7.2a22.74,22.74,0,0,1-11.7-3.24l0.46-3.68a2.726,2.726,0,0,0-.87-2.35s-2.84-2.6-2.87-2.64l-2.86-4.45a2.7,2.7,0,0,0-2.29-1.26h-2.06a23.123,23.123,0,0,1-.59-5.16c0-.19,0-0.38.01-0.57l4.67-6.85a2.623,2.623,0,0,1,.77-0.75l2.39-1.55a4.928,4.928,0,0,0,2.26-4.16v-5.03a22.61,22.61,0,0,1,7.17-3.19l0.26,1.25a0.386,0.386,0,0,1-.03.21l-1.87,3.51a5.218,5.218,0,0,0-.27.79,2.532,2.532,0,0,0,4.41,2.14l4.12-4.81a0.273,0.273,0,0,1,.12-0.09l2.64-1.06a2.455,2.455,0,0,0,.98-0.7l1-1.16a22.8,22.8,0,0,1,4.99,1.99c-0.03.06-1.28,5.26-1.28,5.26a0.053,0.053,0,0,1-.03.02l-4.99.51a2.278,2.278,0,0,0-1.32.61l-3.32,3.13h-0.01l-2.71.73a2.257,2.257,0,0,0-.53,4.14,2.275,2.275,0,0,0,.99.29l9.04,0.5a0.016,0.016,0,0,1,.02.02l0.3,0.66a0.03,0.03,0,0,1-.01.04l-3.22,2.31h-0.02l-4.86-.53-3.51-1.46a2.248,2.248,0,0,0-2.22.28l-3.62,2.73a2.273,2.273,0,0,0-.87,1.47l-0.59,3.94a2.2,2.2,0,0,0,.28,1.46l2.35,4.06a2.253,2.253,0,0,0,1.76,1.12l4.14,0.36a0.053,0.053,0,0,1,.03.02l0.9,2.43,0.94,4.31a2.3,2.3,0,0,0,1.07,1.47l2.05,1.2a2.223,2.223,0,0,0,1.14.31,2.259,2.259,0,0,0,1.58-.65l3.16-3.1a2.222,2.222,0,0,0,.67-1.52l0.21-5.15a0.02,0.02,0,0,1,.01-0.02l2.37-3.6a2.243,2.243,0,0,0-.34-2.89l-1.46-1.36a0.037,0.037,0,0,1-.01-0.03l0.22-1.32a0.016,0.016,0,0,1,.02-0.02,0.019,0.019,0,0,1,.03,0l2.79,1.8a2.268,2.268,0,0,0,2.93-.41l1.03-1.19a2.244,2.244,0,0,0-.91-3.59l-0.08-.03-0.01-.01a0.03,0.03,0,0,1,0-.04,0.01,0.01,0,0,1,.01-0.01l1.67-.87a0.019,0.019,0,0,1,.03,0l1.33,1a2.28,2.28,0,0,0,2.11.32,2.231,2.231,0,0,0,1.43-1.58l0.23-.9a0.053,0.053,0,0,1,.02-0.03l0.65-.12a22.518,22.518,0,0,1,.35,3.96A22.807,22.807,0,0,1,1198.5,1871.78Z" transform="translate(-1173.5 -1824)"/>
</svg>
