<svg xmlns="http://www.w3.org/2000/svg" width="50.78" height="53.47" viewBox="0 0 50.78 53.47">
  <metadata><?xpacket begin="﻿" id="W5M0MpCehiHzreSzNTczkc9d"?>
<x:xmpmeta xmlns:x="adobe:ns:meta/" x:xmptk="Adobe XMP Core 5.6-c138 79.159824, 2016/09/14-01:09:01        ">
   <rdf:RDF xmlns:rdf="http://www.w3.org/1999/02/22-rdf-syntax-ns#">
      <rdf:Description rdf:about=""/>
   </rdf:RDF>
</x:xmpmeta>
                                                                                                    
                                                                                                    
                                                                                                    
                                                                                                    
                                                                                                    
                                                                                                    
                                                                                                    
                                                                                                    
                                                                                                    
                                                                                                    
                                                                                                    
                                                                                                    
                                                                                                    
                                                                                                    
                                                                                                    
                                                                                                    
                                                                                                    
                                                                                                    
                                                                                                    
                                                                                                    
                           
<?xpacket end="w"?></metadata>
<defs>
    <style>
      .cls-1 {
        fill: #a5345c;
        fill-rule: evenodd;
      }
    </style>
  </defs>
  <path class="cls-1" d="M1225.49,2022.96h-3.34v-3.38a1.045,1.045,0,1,0-2.09,0v3.99l-4.36,4.38a23.882,23.882,0,0,0-32.95,34.56,25.584,25.584,0,0,0,2.21,1.96l-5.75,5.75a1.032,1.032,0,0,0,0,1.47,1.013,1.013,0,0,0,.74.31,1.029,1.029,0,0,0,.74-0.31l6-6a23.936,23.936,0,0,0,25.96-.03l6.03,6.03a1.029,1.029,0,0,0,.74.31,1.013,1.013,0,0,0,.74-0.31,1.032,1.032,0,0,0,0-1.47l-5.79-5.8a24.19,24.19,0,0,0,2.16-1.91,23.923,23.923,0,0,0,4.63-27.26,1.048,1.048,0,0,0-1.4-.48,1.028,1.028,0,0,0-.48,1.39,21.588,21.588,0,0,1,2.15,9.46,21.8,21.8,0,1,1-7.21-16.19l-3.67,3.67a16.547,16.547,0,1,0,1.49,1.47l4.41-4.43h0.01l5.08-5.09h3.95A1.045,1.045,0,1,0,1225.49,2022.96Zm-11.83,18.85a14.812,14.812,0,0,1,.5,3.81,14.506,14.506,0,1,1-5.08-11.04l-4.31,4.33a8.429,8.429,0,1,0,1.49,1.46l4.3-4.32A14.551,14.551,0,0,1,1213.66,2041.81Zm-14.62,4.32a1.044,1.044,0,0,0,.74.3,1.029,1.029,0,0,0,.74-0.31l4.25-4.26a6.367,6.367,0,1,1-5.13-2.6,6.309,6.309,0,0,1,3.63,1.14l-4.23,4.25A1.044,1.044,0,0,0,1199.04,2046.13Zm19.15-14.69a1.045,1.045,0,1,1-1.04,1.05A1.05,1.05,0,0,1,1218.19,2031.44Z" transform="translate(-1175.75 -2018.53)"/>
</svg>
