<svg xmlns="http://www.w3.org/2000/svg" width="50.5" height="50.5" viewBox="0 0 50.5 50.5">
  <metadata><?xpacket begin="﻿" id="W5M0MpCehiHzreSzNTczkc9d"?>
<x:xmpmeta xmlns:x="adobe:ns:meta/" x:xmptk="Adobe XMP Core 5.6-c138 79.159824, 2016/09/14-01:09:01        ">
   <rdf:RDF xmlns:rdf="http://www.w3.org/1999/02/22-rdf-syntax-ns#">
      <rdf:Description rdf:about=""/>
   </rdf:RDF>
</x:xmpmeta>
                                                                                                    
                                                                                                    
                                                                                                    
                                                                                                    
                                                                                                    
                                                                                                    
                                                                                                    
                                                                                                    
                                                                                                    
                                                                                                    
                                                                                                    
                                                                                                    
                                                                                                    
                                                                                                    
                                                                                                    
                                                                                                    
                                                                                                    
                                                                                                    
                                                                                                    
                                                                                                    
                           
<?xpacket end="w"?></metadata>
<defs>
    <style>
      .cls-1 {
        fill: #a5345c;
        fill-rule: evenodd;
      }
    </style>
  </defs>
  <path class="cls-1" d="M727.585,2070.92v-0.03l0-.03-0.008-.06,0-.02a0.8,0.8,0,0,0-.049-0.15l-0.007-.01-0.029-.06-0.012-.02-0.032-.05-0.015-.02-0.04-.04-0.012-.02-0.059-.05h0l-3.426-2.75a0.724,0.724,0,1,0-.906,1.13l1.686,1.35a19.049,19.049,0,0,1-11.494-5.15,17.511,17.511,0,0,1-5.3-12.69,0.724,0.724,0,0,0-1.448,0,18.925,18.925,0,0,0,5.739,13.72,20.525,20.525,0,0,0,12.423,5.57l-1.689,1.1a0.72,0.72,0,0,0-.212,1,0.73,0.73,0,0,0,.607.33,0.719,0.719,0,0,0,.394-0.12l3.566-2.32h0l0.065-.05,0.009-.01,0.048-.04,0.017-.02,0.035-.04,0.016-.03,0.032-.04,0.01-.02a0.8,0.8,0,0,0,.063-0.15l0-.01,0.015-.07,0-.02,0.007-.06v-0.05Zm0,0,0.25-.01,0-.03v-0.04l-0.01-.07h0l0-.02v-0.01h0a0.935,0.935,0,0,0-.065-0.21h0l-0.008-.02,0-.01-0.031-.06h0l-0.016-.03h0l-0.036-.06h0l-0.018-.03h0l-0.046-.06h0l-0.014-.01-0.007-.01-0.067-.06,0-.01h-0.006l-3.431-2.76h0a0.991,0.991,0,0,0-.609-0.21,0.966,0.966,0,0,0-.76.36l-0.007.01,0.007-.01a0.983,0.983,0,0,0-.215.61,0.963,0.963,0,0,0,.364.76l1.687,1.36,0.156-.2,0.025-.25a18.756,18.756,0,0,1-11.345-5.08,17.257,17.257,0,0,1-5.223-12.51,0.974,0.974,0,0,0-1.948,0,19.162,19.162,0,0,0,5.814,13.9,20.767,20.767,0,0,0,12.574,5.64l0.024-.25-0.137-.21-1.688,1.1h0a0.962,0.962,0,0,0-.442.81,0.945,0.945,0,0,0,.157.53h0a0.975,0.975,0,0,0,.817.45,0.948,0.948,0,0,0,.531-0.16l3.573-2.33h0.009l0.063-.05,0.012-.01,0.02-.02,0.048-.04,0.008-.01,0.024-.02,0-.01,0.038-.04,0-.01,0.02-.02,0-.01,0.036-.06h0l0.013-.02v-0.01h0a0.94,0.94,0,0,0,.085-0.2h0l0-.02h0l0.016-.07,0-.01,0-.03v-0.01l0.006-.06h0l0-.02v-0.07l-0.25.01-0.25-.01v0.04h0l-0.006.05v0.01l-0.012.05,0,0.01,0.241,0.06-0.239-.07a0.6,0.6,0,0,1-.041.1l0.217,0.12-0.214-.13-0.008.01-0.025.04-0.007.01-0.027.03-0.007.01-0.041.04h0l-0.009.01,0.172,0.18-0.148-.2-0.065.05H727.1l0.152,0.2-0.136-.21-3.566,2.32h0a0.488,0.488,0,0,1-.257.08,0.476,0.476,0,0,1-.4-0.22h0a0.474,0.474,0,0,1-.076-0.26,0.464,0.464,0,0,1,.215-0.39h-0.01l2.3-1.49-0.712-.07a20.281,20.281,0,0,1-12.273-5.49,18.7,18.7,0,0,1-5.663-13.55,0.474,0.474,0,0,1,.948,0A17.774,17.774,0,0,0,713,2065.12a19.34,19.34,0,0,0,11.644,5.22l0.836,0.08-2.347-1.88h0.006a0.466,0.466,0,0,1-.178-0.37,0.45,0.45,0,0,1,.105-0.29l0.007-.01-0.007.01a0.465,0.465,0,0,1,.37-0.18,0.471,0.471,0,0,1,.3.1l3.425,2.75,0.157-.19-0.169.18,0,0.01-0.014-.02,0.065,0.06h0l0.033,0.04,0.006,0.01,0.025,0.04h0l0.023,0.05,0,0.01,0.226-.11-0.228.1a0.552,0.552,0,0,1,.032.1l0.245-.05-0.248.04,0,0.02,0.006,0.04v0.02h0l0,0.04,0.25-.02-0.25-.01Zm19.292-36.43a20.52,20.52,0,0,0-12.423-5.56l1.688-1.1a0.722,0.722,0,1,0-.789-1.21l-3.566,2.32h0l-0.065.05h-0.008l-0.049.05-0.017.02-0.035.04-0.016.02-0.031.05-0.011.02a0.5,0.5,0,0,0-.063.15l0,0.01-0.015.06,0,0.03-0.006.05,0,0.02v0.03l0,0.03v0.03l0.008,0.07,0,0.01a0.7,0.7,0,0,0,.048.16l0.007,0.01,0.029,0.06,0.012,0.02,0.032,0.04,0.015,0.02,0.041,0.05,0.011,0.01,0.059,0.05,0,0.01,3.425,2.75a0.707,0.707,0,0,0,.453.16,0.716,0.716,0,0,0,.565-0.27,0.728,0.728,0,0,0-.111-1.02l-1.687-1.35a19.052,19.052,0,0,1,11.5,5.15,17.505,17.505,0,0,1,5.3,12.68,0.724,0.724,0,1,0,1.447,0A18.944,18.944,0,0,0,746.877,2034.49Zm0,0,0.174-.18a20.753,20.753,0,0,0-12.573-5.63l-0.024.25,0.136,0.21,1.689-1.1a0.982,0.982,0,0,0,.443-0.82,0.971,0.971,0,0,0-.975-0.97,0.943,0.943,0,0,0-.53.16l-3.571,2.32-0.009.01h0l-0.065.05H731.56l-0.018.02h0l-0.05.05h-0.007l-0.024.03h0l-0.039.05,0,0.01-0.019.02,0,0.01-0.036.05,0,0.01-0.013.02h-0.005a1.224,1.224,0,0,0-.085.2v0.01l0,0.01v0.01l-0.016.07,0,0.01,0,0.03h0l-0.007.06h0v0.02l0,0.01v0.05l0,0.05v0.04l0.01,0.07h0l0,0.02h0v0.01a1.207,1.207,0,0,0,.065.21h0l0.009,0.02h0l0.031,0.06,0,0.01,0.016,0.02,0,0.01,0.036,0.05,0,0.01,0.017,0.02,0.006,0.01,0.048,0.05h0l0.013,0.02,0.009,0.01,0.066,0.06h0l0.008,0.01,3.434,2.75a0.944,0.944,0,0,0,.609.22,0.974,0.974,0,0,0,.759-0.37,0.938,0.938,0,0,0,.215-0.61,0.958,0.958,0,0,0-.364-0.75l-1.686-1.36-0.157.2-0.025.24a18.826,18.826,0,0,1,11.346,5.09,17.242,17.242,0,0,1,5.223,12.5,0.974,0.974,0,1,0,1.947,0,19.191,19.191,0,0,0-5.814-13.9l-0.174.18-0.174.18a18.694,18.694,0,0,1,5.662,13.54,0.474,0.474,0,1,1-.947,0,17.755,17.755,0,0,0-5.375-12.86,19.288,19.288,0,0,0-11.644-5.22l-0.837-.09,2.342,1.89a0.46,0.46,0,0,1,.177.36,0.476,0.476,0,0,1-.1.3,0.466,0.466,0,0,1-.37.18,0.48,0.48,0,0,1-.3-0.11l-3.426-2.75-0.156.2,0.172-.18,0-.01h0l-0.052-.05h0l-0.033-.03-0.006-.01-0.025-.04,0-.01-0.023-.04-0.006-.01-0.225.11,0.229-.11a0.346,0.346,0,0,1-.032-0.1l-0.245.05,0.247-.04,0-.01-0.006-.05,0-.02v-0.02h0v-0.04l-0.25.01,0.248,0.03,0-.02,0.006-.05v-0.01l0.012-.05,0-.01-0.241-.06,0.239,0.07a0.381,0.381,0,0,1,.042-0.1l-0.218-.12,0.213,0.13,0.009-.02,0.025-.03,0.007-.01,0.027-.04h0.007l0.041-.04,0.007-.01-0.169-.18,0.149,0.2,0.065-.05h0l-0.148-.2,0.137,0.21,3.566-2.32a0.414,0.414,0,0,1,.257-0.08,0.476,0.476,0,0,1,.4.22,0.451,0.451,0,0,1,.077.25,0.472,0.472,0,0,1-.216.4l-2.288,1.49,0.712,0.07a20.281,20.281,0,0,1,12.273,5.49ZM718.054,2025a13.555,13.555,0,1,0,13.553,13.55A13.568,13.568,0,0,0,718.054,2025Zm0,25.66a12.105,12.105,0,1,1,12.106-12.11A12.12,12.12,0,0,1,718.054,2050.66Zm0-25.66v-0.25a13.805,13.805,0,1,0,13.8,13.8,13.817,13.817,0,0,0-13.8-13.8v0.5a13.317,13.317,0,1,1-9.4,3.9,13.255,13.255,0,0,1,9.4-3.9V2025Zm0,25.66v-0.25a11.876,11.876,0,1,1,8.379-3.48,11.812,11.812,0,0,1-8.379,3.48v0.5a12.355,12.355,0,1,0-12.357-12.36,12.368,12.368,0,0,0,12.357,12.36v-0.25Zm22.892-2.77a13.555,13.555,0,1,0,13.554,13.56A13.57,13.57,0,0,0,740.946,2047.89Zm0,25.66a12.105,12.105,0,1,1,12.107-12.1A12.118,12.118,0,0,1,740.946,2073.55Zm0-25.66v-0.25a13.805,13.805,0,1,0,13.8,13.81,13.818,13.818,0,0,0-13.8-13.81v0.5a13.317,13.317,0,1,1-9.4,3.9,13.258,13.258,0,0,1,9.4-3.9v-0.25Zm0,25.66v-0.25a11.859,11.859,0,1,1,8.38-3.47,11.841,11.841,0,0,1-8.38,3.47v0.5a12.355,12.355,0,1,0-12.356-12.35,12.368,12.368,0,0,0,12.356,12.35v-0.25Zm-22.4-36.15v-3.42a9.569,9.569,0,0,1,2.017.63,0.934,0.934,0,0,0,.739-0.96c0-.83-1.613-1.18-2.756-1.21v-0.46a0.482,0.482,0,0,0-.5-0.38,0.44,0.44,0,0,0-.487.38v0.49c-1.6.17-3.193,1.01-3.193,3.13,0,2.15,1.681,2.75,3.193,3.29v3.95c-1.714-.14-2.168-1.31-2.722-1.31a0.975,0.975,0,0,0-.773.96c0,0.82,1.411,1.95,3.5,1.98v0.52a0.447,0.447,0,0,0,.487.39,0.489,0.489,0,0,0,.5-0.39v-0.57a3.257,3.257,0,0,0,3.059-3.46C721.6,2038.67,720,2037.93,718.542,2037.4Zm-0.89-.32c-0.891-.34-1.613-0.69-1.613-1.65,0-.87.672-1.29,1.613-1.41v3.06Zm0.789,5.73v-3.55a1.959,1.959,0,0,1,1.479,1.88A1.6,1.6,0,0,1,718.441,2042.81Zm0.1-5.41h0.251v-3.42h-0.251l-0.017.25a3.368,3.368,0,0,1,1.209.32c0.146,0.07.274,0.14,0.4,0.2a0.982,0.982,0,0,0,.422.11,0.823,0.823,0,0,0,.471-0.15,1.216,1.216,0,0,0,.4-0.52,1.455,1.455,0,0,0,.121-0.54,0.829,0.829,0,0,0-.1-0.4,1.215,1.215,0,0,0-.509-0.5,3.613,3.613,0,0,0-1.142-.42,7.948,7.948,0,0,0-1.247-.14l-0.008.25h0.251v-0.46a0.53,0.53,0,0,0-.08-0.27,0.689,0.689,0,0,0-.287-0.26,0.844,0.844,0,0,0-.388-0.1,0.8,0.8,0,0,0-.51.17,0.609,0.609,0,0,0-.227.46v0.49h0.25l-0.026-.25a4.363,4.363,0,0,0-2.328.89,2.909,2.909,0,0,0-.791,1.02,3.52,3.52,0,0,0-.3,1.47,3.215,3.215,0,0,0,.312,1.45,3.251,3.251,0,0,0,1.331,1.35,11.493,11.493,0,0,0,1.716.73l0.084-.24H717.3v3.95h0.25l0.02-.25a2.979,2.979,0,0,1-1.662-.65c-0.189-.15-0.348-0.3-0.51-0.42a1.4,1.4,0,0,0-.258-0.17,0.785,0.785,0,0,0-.312-0.07,0.793,0.793,0,0,0-.432.13,1.386,1.386,0,0,0-.591,1.08,1.385,1.385,0,0,0,.3.8,3.285,3.285,0,0,0,1.32.98,5.387,5.387,0,0,0,2.119.45l0-.25H717.3v0.52a0.593,0.593,0,0,0,.227.46,0.809,0.809,0,0,0,.51.18,0.856,0.856,0,0,0,.5-0.17,0.66,0.66,0,0,0,.177-0.2,0.5,0.5,0,0,0,.08-0.27v-0.57h-0.251l0.035,0.25a3.858,3.858,0,0,0,2.358-1.13,3.669,3.669,0,0,0,.916-2.58,3.913,3.913,0,0,0-.293-1.55,3.352,3.352,0,0,0-1.267-1.46,7.657,7.657,0,0,0-1.662-.79l-0.087.24h0l-0.086.23a6.088,6.088,0,0,1,1.994,1.07,2.728,2.728,0,0,1,.649.91,3.386,3.386,0,0,1,.252,1.35,3.175,3.175,0,0,1-.782,2.24,3.4,3.4,0,0,1-2.061.97l-0.215.03v0.79h0a0.169,0.169,0,0,1-.078.08,0.3,0.3,0,0,1-.176.06,0.306,0.306,0,0,1-.191-0.06,0.118,0.118,0,0,1-.046-0.08v-0.77h-0.246a4.719,4.719,0,0,1-2.4-.66,2.424,2.424,0,0,1-.646-0.57,0.88,0.88,0,0,1-.2-0.5,0.854,0.854,0,0,1,.179-0.48,0.667,0.667,0,0,1,.18-0.18,0.286,0.286,0,0,1,.164-0.05,0.155,0.155,0,0,1,.1.03,1.416,1.416,0,0,1,.331.24,5.871,5.871,0,0,0,.842.62,3.549,3.549,0,0,0,1.431.42l0.269,0.02v-4.4l-0.166-.05a7.078,7.078,0,0,1-2.091-1.01,2.354,2.354,0,0,1-.675-0.82,2.74,2.74,0,0,1-.261-1.23,3.022,3.022,0,0,1,.252-1.26,2.48,2.48,0,0,1,1.1-1.14,4.19,4.19,0,0,1,1.617-.48l0.224-.02v-0.72a0.1,0.1,0,0,1,.046-0.07,0.306,0.306,0,0,1,.191-0.06,0.346,0.346,0,0,1,.2.07,0.09,0.09,0,0,1,.051.05l0.007,0.01v0.01l0-.01h0v0.01l0-.01h0v0.7l0.242,0.01a5.918,5.918,0,0,1,1.73.29,2.043,2.043,0,0,1,.6.32,0.605,0.605,0,0,1,.142.18,0.341,0.341,0,0,1,.043.17,0.759,0.759,0,0,1-.035.21,0.947,0.947,0,0,1-.185.36,0.354,0.354,0,0,1-.127.1,0.334,0.334,0,0,1-.142.04,0.565,0.565,0,0,1-.218-0.07c-0.155-.07-0.369-0.19-0.658-0.3a3.727,3.727,0,0,0-1.123-.26l-0.267-.01v3.85l0.163,0.06Zm-0.89-.32,0.088-.24a3.617,3.617,0,0,1-1.066-.54,1.2,1.2,0,0,1-.282-0.36,1.17,1.17,0,0,1-.1-0.51h-0.248l0.247,0.02v-0.02h-0.248l0.247,0.02v-0.02a1.077,1.077,0,0,1,.1-0.47,0.961,0.961,0,0,1,.461-0.45,2.353,2.353,0,0,1,.837-0.24l-0.031-.25H717.4v3.06h0.25l0.088-.24-0.088.24h0.25v-3.35l-0.281.04a2.521,2.521,0,0,0-1.285.47,1.484,1.484,0,0,0-.4.51,1.577,1.577,0,0,0-.144.68h0.25l-0.249-.03v0.03h0a1.67,1.67,0,0,0,.151.72,1.772,1.772,0,0,0,.677.72,5.315,5.315,0,0,0,.947.44l0.338,0.13v-0.36h-0.25Zm0.789,5.73h0.25v-3.55h-0.25l-0.1.23a2.731,2.731,0,0,1,.961.61,1.463,1.463,0,0,1,.366,1.04,1.357,1.357,0,0,1-.332.96,1.715,1.715,0,0,1-.942.46l0.045,0.25h0l0.046,0.24a2.124,2.124,0,0,0,1.217-.61,1.834,1.834,0,0,0,.466-1.3,1.941,1.941,0,0,0-.5-1.37,3.112,3.112,0,0,0-1.135-.74l-0.349-.15v4.23l0.3-.06Zm25.122,18.75a2.381,2.381,0,0,0,1.249-2.37,2.176,2.176,0,0,0-1.815-2.43h0.037v-0.69a0.686,0.686,0,0,0-1.371,0v0.57h-0.749v-0.57a0.685,0.685,0,0,0-1.37,0v0.57H738.5a0.725,0.725,0,0,0-.019,1.45v7.84a0.725,0.725,0,0,0,.019,1.45h1.043v0.61a0.685,0.685,0,1,0,1.37,0v-0.61h0.749v0.61a0.686,0.686,0,1,0,1.371,0v-0.69h-0.069c1.235-.24,2.111-1.12,2.111-3v-0.28A2.256,2.256,0,0,0,743.563,2061.56Zm-3.539-3.53h1.718a1.3,1.3,0,0,1,1.513,1.4,1.329,1.329,0,0,1-1.484,1.52h-1.747v-2.92Zm3.5,6.15a1.549,1.549,0,0,1-1.659,1.82h-1.836v-3.82h1.836a1.491,1.491,0,0,1,1.659,1.76v0.24Zm0.044-2.62,0.1,0.23a2.132,2.132,0,0,0,1.029-.97,3.385,3.385,0,0,0,.368-1.63,2.8,2.8,0,0,0-.575-1.87,2.572,2.572,0,0,0-1.436-.81l-0.054.25v0.25h0.287v-0.94a0.936,0.936,0,0,0-1.871,0v0.32h-0.249v-0.32a0.935,0.935,0,0,0-1.87,0v0.57h0.25v-0.25H738.5a0.975,0.975,0,0,0-.026,1.95l0.007-.25h-0.251v7.84h0.251l-0.007-.25a0.975,0.975,0,0,0,.026,1.95h1.043v-0.25h-0.25v0.61a0.935,0.935,0,1,0,1.87,0v-0.36h0.249v0.36a0.936,0.936,0,1,0,1.871,0v-0.94h-0.319v0.25l0.048,0.25a2.7,2.7,0,0,0,1.669-.98,3.632,3.632,0,0,0,.644-2.27v-0.28a3.065,3.065,0,0,0-.459-1.8,2.507,2.507,0,0,0-1.213-.89l-0.091.23,0.1,0.23-0.1-.23-0.09.24a2,2,0,0,1,.983.7,2.606,2.606,0,0,1,.37,1.52v0.28a3.127,3.127,0,0,1-.541,1.96,2.222,2.222,0,0,1-1.369.8l0.049,0.49h0.069v-0.25h-0.25v0.69a0.436,0.436,0,1,1-.871,0v-0.86h-1.249v0.86a0.435,0.435,0,1,1-.87,0v-0.86H738.5a0.473,0.473,0,0,1-.475-0.47,0.48,0.48,0,0,1,.462-0.48h0.243v-8.33l-0.243-.01a0.465,0.465,0,0,1-.462-0.47,0.482,0.482,0,0,1,.475-0.48h1.293v-0.82a0.435,0.435,0,0,1,.87,0v0.82h1.249v-0.82a0.436,0.436,0,0,1,.871,0v0.69h0.25v-0.25H743l-0.055.49a2.053,2.053,0,0,1,1.162.64,2.306,2.306,0,0,1,.458,1.55,2.955,2.955,0,0,1-.308,1.4,1.7,1.7,0,0,1-.792.75l-0.551.24,0.562,0.22Zm-3.539-3.53v0.24h1.718a1.371,1.371,0,0,1,.939.28,0.892,0.892,0,0,1,.235.34,1.462,1.462,0,0,1,.089.54,1.973,1.973,0,0,1-.079.59,0.884,0.884,0,0,1-.378.5,1.472,1.472,0,0,1-.777.18h-1.5v-2.67h-0.25v0h-0.25v3.17h2a2.4,2.4,0,0,0,.735-0.11,1.356,1.356,0,0,0,.759-0.61,2.07,2.07,0,0,0,.24-1.05,1.948,1.948,0,0,0-.123-0.72,1.352,1.352,0,0,0-.637-0.72,2.284,2.284,0,0,0-1-.22h-1.968v0.26h0.25Zm3.5,6.15h-0.25a2.461,2.461,0,0,1-.1.74,1.132,1.132,0,0,1-.459.63,1.6,1.6,0,0,1-.85.2h-1.586v-3.32h1.586a2.259,2.259,0,0,1,.624.08,0.993,0.993,0,0,1,.571.44,1.909,1.909,0,0,1,.214.99v0.24h0.5v-0.24a2.791,2.791,0,0,0-.125-0.89,1.5,1.5,0,0,0-.676-0.87,2.2,2.2,0,0,0-1.108-.25h-2.086v4.32h2.086a2.438,2.438,0,0,0,.782-0.12,1.534,1.534,0,0,0,.844-0.69,2.531,2.531,0,0,0,.283-1.26h-0.25Z" transform="translate(-704.25 -2024.75)"/>
</svg>
