<svg xmlns="http://www.w3.org/2000/svg" width="33.312" height="40" viewBox="0 0 33.312 40">
  <metadata><?xpacket begin="﻿" id="W5M0MpCehiHzreSzNTczkc9d"?>
<x:xmpmeta xmlns:x="adobe:ns:meta/" x:xmptk="Adobe XMP Core 5.6-c138 79.159824, 2016/09/14-01:09:01        ">
   <rdf:RDF xmlns:rdf="http://www.w3.org/1999/02/22-rdf-syntax-ns#">
      <rdf:Description rdf:about=""/>
   </rdf:RDF>
</x:xmpmeta>
                                                                                                    
                                                                                                    
                                                                                                    
                                                                                                    
                                                                                                    
                                                                                                    
                                                                                                    
                                                                                                    
                                                                                                    
                                                                                                    
                                                                                                    
                                                                                                    
                                                                                                    
                                                                                                    
                                                                                                    
                                                                                                    
                                                                                                    
                                                                                                    
                                                                                                    
                                                                                                    
                           
<?xpacket end="w"?></metadata>
<defs>
    <style>
      .cls-1 {
        fill: #fff;
        fill-rule: evenodd;
      }
    </style>
  </defs>
  <path class="cls-1" d="M419.333,4400.08c-2.6,0-4.575-1.52-6.665-3.13-2.4-1.85-5.122-3.95-9.168-3.95s-6.767,2.1-9.168,3.95c-2.09,1.61-4.064,3.13-6.665,3.13a0.84,0.84,0,0,0-.834.84c0,9.73,1.212,16.21,3.93,21,2.7,4.77,6.715,7.73,12.32,10.97a0.845,0.845,0,0,0,.834,0c5.606-3.24,9.622-6.2,12.321-10.97,2.717-4.79,3.929-11.27,3.929-21A0.84,0.84,0,0,0,419.333,4400.08ZM403.5,4431.2c-10.052-5.86-14.866-10.91-15-29.49,2.746-.28,4.827-1.88,6.847-3.44,2.3-1.77,4.672-3.6,8.15-3.6s5.853,1.83,8.151,3.6c2.019,1.56,4.1,3.16,6.846,3.44C418.366,4420.29,413.552,4425.34,403.5,4431.2Zm-9.846-28.68a0.827,0.827,0,0,0-1.126-.35c-0.1.05-.208,0.11-0.314,0.16a0.834,0.834,0,0,0,.369,1.58,0.815,0.815,0,0,0,.368-0.09c0.119-.05.237-0.12,0.354-0.18A0.828,0.828,0,0,0,393.654,4402.52Zm22,6.53c0.026,0,.051.01,0.076,0.01a0.837,0.837,0,0,0,.829-0.76c0.01-.11.019-0.22,0.028-0.32a0.833,0.833,0,1,0-1.66-.14c-0.009.1-.018,0.2-0.027,0.31A0.832,0.832,0,0,0,415.655,4409.05Zm-20.354-6.82a0.807,0.807,0,0,0,.487-0.16c0.483-.35.953-0.71,1.408-1.05,2.127-1.62,3.964-3.02,6.3-3.02a0.831,0.831,0,0,0,.833-0.83,0.839,0.839,0,0,0-.833-0.84c-2.9,0-5.045,1.63-7.314,3.36-0.446.34-.908,0.69-1.374,1.03A0.835,0.835,0,0,0,395.3,4402.23Zm8.2,25.09a27.918,27.918,0,0,1-6.64-5.36,0.834,0.834,0,0,0-1.271,1.08,30.423,30.423,0,0,0,7.479,5.97,0.012,0.012,0,0,1,.013.01l0.061,0.03a0.073,0.073,0,0,1,.04.02,0.13,0.13,0,0,1,.057.02c0.016,0,.032.01,0.049,0.01a0.1,0.1,0,0,0,.052.01,0.1,0.1,0,0,0,.054.01,0.2,0.2,0,0,0,.076.01h0.06a0.2,0.2,0,0,0,.077-0.01,0.1,0.1,0,0,0,.052-0.01,0.1,0.1,0,0,0,.054-0.01c0.016,0,.032-0.01.048-0.01a0.13,0.13,0,0,1,.057-0.02,0.076,0.076,0,0,1,.04-0.02l0.061-.03a0.013,0.013,0,0,1,.013-0.01,30.423,30.423,0,0,0,7.479-5.97c2.53-2.98,4.125-7.02,4.876-12.35a0.833,0.833,0,0,0-1.651-.23c-0.705,5-2.176,8.77-4.5,11.5A27.9,27.9,0,0,1,403.5,4427.32Zm5.378-23.89-8.693,8.69-2.063-2.06a2.708,2.708,0,1,0-3.83,3.83l3.984,3.98,0.034,0.03c0,0.01.01,0.01,0.015,0.02l0.035,0.03c0.007,0.01.013,0.01,0.019,0.02l0.036,0.03c0.006,0,.011.01,0.017,0.01l0.036,0.03a0.012,0.012,0,0,0,.013.01l0.037,0.03c0.006,0.01.013,0.01,0.02,0.02l0.038,0.03s0.011,0.01.016,0.01l0.038,0.03c0.006,0,.012.01,0.017,0.01l0.039,0.03a0.019,0.019,0,0,1,.019.01l0.039,0.02a0.015,0.015,0,0,0,.016.01l0.039,0.03a0.015,0.015,0,0,1,.016.01l0.04,0.02c0.008,0,.016.01,0.024,0.01l0.041,0.02a0.012,0.012,0,0,0,.013.01l0.041,0.02a0.021,0.021,0,0,0,.021.01l0.042,0.02c0.006,0,.012.01,0.017,0.01l0.022,0.01c0.014,0.01.029,0.01,0.045,0.02l0.042,0.02h0.012l0.042,0.02a0.02,0.02,0,0,1,.02.01l0.043,0.01c0.007,0,.014.01,0.021,0.01l0.021,0.01c0.014,0,.028.01,0.043,0.01l0.043,0.01c0.006,0,.013.01,0.019,0.01l0.044,0.01a0.017,0.017,0,0,1,.018.01l0.044,0.01h0.018l0.044,0.01a0.019,0.019,0,0,1,.019.01h0.044a0.028,0.028,0,0,0,.025.01h0.022a0.059,0.059,0,0,0,.04.01l0.044,0.01h0.02l0.045,0.01h0.04a0.066,0.066,0,0,1,.042.01h0.134l0.045,0.01h0.141l0.045-.01h0.089l0.045-.01h0.081l0.045-.01h0.021l0.044-.01a0.061,0.061,0,0,0,.041-0.01h0.022a0.026,0.026,0,0,0,.024-0.01h0.044a0.017,0.017,0,0,1,.017-0.01l0.045-.01h0.021l0.043-.01a0.017,0.017,0,0,1,.018-0.01l0.043-.01c0.006,0,.013-0.01.018-0.01l0.044-.01c0.014,0,.027-0.01.041-0.01l0.021-.01c0.008,0,.015-0.01.023-0.01l0.043-.01a0.019,0.019,0,0,1,.019-0.01l0.043-.02h0.014l0.042-.02c0.014-.01.027-0.01,0.04-0.02l0.022-.01a0.021,0.021,0,0,0,.021-0.01l0.041-.02a0.017,0.017,0,0,0,.017-0.01l0.041-.02a0.073,0.073,0,0,0,.039-0.02l0.021-.01c0.006,0,.012-0.01.018-0.01l0.04-.02a0.019,0.019,0,0,1,.019-0.01l0.04-.03c0.006,0,.012-0.01.019-0.01l0.039-.02a0.012,0.012,0,0,1,.013-0.01l0.039-.03c0.006,0,.013-0.01.02-0.01l0.038-.03c0.006,0,.013-0.01.019-0.01l0.037-.03a0.014,0.014,0,0,1,.014-0.01l0.037-.03,0.029-.03,0.021-.01a0.04,0.04,0,0,1,.022-0.02l0.035-.03a0.243,0.243,0,0,0,.014-0.02l0.035-.03c0.006,0,.011-0.01.016-0.01l0.034-.04a0.037,0.037,0,0,0,.022-0.02l10.6-10.59A2.709,2.709,0,1,0,408.878,4403.43Zm2.653,2.65-10.609,10.61h-0.006l-0.077.07h0l-0.1.07-0.141.08h0l-0.093.03h0l-0.144.04h-0.077c0,0.01,0,.01-0.006.01h-0.18l-0.071-.01h-0.007l-0.143-.04h0l-0.082-.03-0.156-.08-0.144-.11-4.018-4.01a1.044,1.044,0,0,1,1.474-1.48l2.652,2.66a0.843,0.843,0,0,0,1.178,0l9.283-9.29A1.044,1.044,0,0,1,411.531,4406.08Z" transform="translate(-386.844 -4393)"/>
</svg>
